<?xml version="1.0" encoding="utf-8"?>
<!-- Generator: Adobe Illustrator 27.9.0, SVG Export Plug-In . SVG Version: 6.00 Build 0)  -->
<svg version="1.1" id="Layer_1" xmlns="http://www.w3.org/2000/svg" xmlns:xlink="http://www.w3.org/1999/xlink" x="0px" y="0px"
	 viewBox="0 0 678.97 678.97" style="enable-background:new 0 0 678.97 678.97;" xml:space="preserve">
<style type="text/css">
	.st0{display:none;fill:#FFFFFF;}
	.st1{fill:#C8932C;}
	.st2{fill:#06517D;}
	.st3{display:none;fill:none;stroke:#2B3289;stroke-width:9;stroke-miterlimit:10;}
	.st4{fill:none;stroke:#06517D;stroke-width:10;stroke-miterlimit:10;}
	.st5{fill:#6D6E71;}
</style>
<rect class="st0" width="678.97" height="678.97"/>
<g>
	<path class="st1" d="M364.43,589.3c-3.75-0.72-9.33-2.15-15.46-5.28c-15.02-7.67-22.97-20.2-27.94-28.04
		c-4.41-6.95-7.41-13.67-9.33-17.97c-2.26-5.06-3.99-8.95-5.56-14.19c-4.04-13.53-2.59-15.27-4.62-25.18
		c-1.51-7.37-6.53-13.04-11.59-17.79c-15.02-14.12-16.86-31.81-14.46-50.39c0.86-6.68,3.77-13.31,7.27-19.63
		c4.72-8.53,4.87-22.69-4.22-31.21c-9.07-8.5-18.33-16.96-23.94-28.46c-3.82-7.82-5.9-15.73-2.49-24.23
		c0.68-1.69,0.14-2.45-1.56-2.54c-9.35-0.46-18.16-4.38-27.57-4.33c-12.68,0.07-24.77,3.72-37.1,6.08
		c-23.27,4.47-44.68,1.44-62.66-16.24c-7.46-7.33-13.53-15.3-18.24-24.06c-2.53-4.71-6.03-12.2-8.51-21.89
		c-1.23-4.8-1.91-8.99-2.31-12.25c-0.51-12.6-1.02-25.2-1.53-37.8c0.04-2.19,0.2-5.5,0.84-9.5c0.35-2.19,0.71-3.79,0.86-4.44
		c4.76-21.07,4.78-27.16,8.84-33.96c3.95-6.62,9.3-12.54,16.16-17.7c7.97-6,13.27-13.71,17.9-22.32
		c10.84-20.15,28.17-31.89,50.07-37.5c7.34-1.88,14.73-3.39,22.14-4.89c18.52-3.76,31.32-5.79,34.19-6.23
		c8.28-1.27,15.78-2.23,22.3-2.98c5.56-0.45,11.13-0.9,16.69-1.35c3.78-0.08,10.25,0.34,17.05,3.83c2.88,1.48,6.16,3.47,9.29,7.09
		c2.24,2.59,3.97,5.58,5.23,8.94c1.12,2.97,2.94,4.48,4.95,6.48c5.87,5.82,11.64,7.85,20.46,5.68c9.16-2.25,18.56,2.25,27.64,4.88
		c26.81,7.76,30.22,8.28,38.96,9.4c12.84,1.64,18.63,0.61,20.86,0.14c3.47-0.72,5.69-1.61,10.45-2.07
		c6.29-0.6,14.63-0.23,14.99,1.73c0.14,0.74-0.81,2.01-6.03,4.31c-1.31,0.82-3.13,1.87-5.37,2.92c0,0-4.07,1.89-8.81,3.11
		c-13.77,3.55-30.43,1.58-30.43,1.58c-11.8-1.4-20.63-4.06-26.06-5.8c-12.44-3.99-24.5-9.68-38.17-8.04
		c-2.64,0.32-4.9,1.01-7.06,2.55c-4.99,3.56-8.41,3.22-10.66-2.18c-2.59-6.23-7.14-9.44-13.13-10.89c-2.79-0.67-2.89-2.03-2.97-4.22
		c-0.33-9-5.06-13.79-13.93-16.47c-13.36-4.04-26.06-0.39-38.95,2.01c-9.16,1.71-18.31,3.54-27.53,4.84
		c-16.25,2.29-32.5,4.97-47.49,11.73c-13.09,5.9-23.32,15.77-29.61,28.77c-5.62,11.61-14.83,19.74-24.18,27.9
		c-8.31,7.26-11.02,14.77-14.34,24.24c-4.08,11.65-4.42,22.77-4.67,30.76c-0.04,1.44-0.2,7.26,0.38,15.3
		c0.99,13.83,2.08,31.57,12.16,49.86c3.05,5.52,6.7,10.8,11,15.81c9.87,11.48,22.78,18.93,39.02,18.68c10-0.15,19.56-2.09,29.3-4.06
		c14.19-2.86,28.51-5.03,43.19-1.14c9.7,2.57,19.88,2.42,29.89,0.46c1.38-0.27,3.27,3.28,2.69,4.7c-2.09,5.19-6.23,9.13-7.75,14.87
		c-1.47,5.56-0.07,10.2,1.96,14.64c5.32,11.63,15.91,18.96,24.09,28.28c8.91,10.14,9.98,22.35,6.71,34.92
		c-2.27,8.72-8.08,16.36-9.27,25.36c-1.54,11.72-0.53,23.16,7.03,33.24c5.04,6.73,11.51,12.24,15.67,19.78
		c2.99,5.42,4.7,11.3,5.12,16.99c0.69,9.34,3.49,17.63,7.17,26.08c6.08,13.96,12.09,27.81,24.29,37.69
		c10.66,8.63,22.32,11.5,36.34,9.04c20.09-3.51,34.66-15.21,48.7-28.4c3.44-3.23,10.1-1.33,11.73,3.24c0.21,0.59,0.22,1.06,0.1,1.44
		c-0.36,1.2-1.62,1.84-1.91,1.99c-2.42,1.24-3.35,5.13-22.75,18.41c-12.64,8.65-19.13,13.01-27.44,14.99
		c-3.55,0.85-6.59,1.19-8.7,1.34C376.03,589.64,370.23,589.47,364.43,589.3z"/>
	<path class="st2" d="M508.27,266.08c-20.95,0.14-41.89,0.28-62.84,0.42l-24.64-24.64c-1.08-1.08-2.53-1.68-4.06-1.68h-39.1
		c-3.17,0-5.74,2.57-5.74,5.74v62.65c-5.12-1.96-12.66-5.02-22.08-9.32c-0.96,3.73-2.34,7.32-4.09,10.76
		c18.28,8.33,29.49,11.99,30.15,12.2c1.75,0.57,3.66,0.26,5.14-0.82c1.48-1.08,2.36-2.8,2.36-4.64v-65.09h30.99L439,276.3
		c1.08,1.08,2.53,1.68,4.06,1.68c21.88-0.56,43.76-1.12,65.64-1.68c-0.51-0.76-1.18-1.99-1.49-3.62
		C506.61,269.5,507.81,266.95,508.27,266.08z"/>
	<path class="st2" d="M527.8,173.98c-11.96,0-21.98,8.36-24.59,19.53h-78.46c-3.17,0-5.74,2.57-5.74,5.74v14.98H357.2v-10.99h43.98
		c3.17,0,5.74-2.57,5.74-5.74v-36.34h37.01c2.61,11.18,12.63,19.53,24.59,19.53c13.93,0,25.27-11.34,25.27-25.27
		c0-13.94-11.34-25.27-25.27-25.27c-11.96,0-21.98,8.36-24.59,19.53h-42.75c-3.17,0-5.74,2.57-5.74,5.74v36.34H357.2v-8.99
		c0-3.17-2.57-5.74-5.74-5.74H325.3c-0.8,0.1-2.87,0.47-4.5,2.17c-0.5,0.53-1.47,1.54-1.64,3.11c-0.21,1.92,0.9,3.37,1.22,3.78
		c2.45,3.19,7.46,2.45,7.72,2.41c5.88,0,11.75,0,17.63,0v55.36h-20.4c-3.17,0-5.74,2.57-5.74,5.74v20.66
		c-11.18,2.61-19.53,12.63-19.53,24.59c0,13.94,11.34,25.27,25.27,25.27c13.94,0,25.27-11.34,25.27-25.27
		c0-11.96-8.36-21.98-19.54-24.59v-14.92h20.4c3.17,0,5.74-2.57,5.74-5.74v-23.9h67.55c3.17,0,5.74-2.57,5.74-5.74v-14.98h72.73
		c2.61,11.18,12.63,19.53,24.59,19.53c13.93,0,25.27-11.34,25.27-25.27C553.07,185.32,541.74,173.98,527.8,173.98z M468.51,141.62
		c7.61,0,13.8,6.19,13.8,13.8c0,7.61-6.19,13.8-13.8,13.8c-7.61,0-13.8-6.19-13.8-13.8C454.71,147.81,460.9,141.62,468.51,141.62z
		 M339.13,294.85c0,7.61-6.19,13.8-13.8,13.8c-7.61,0-13.8-6.19-13.8-13.8c0-7.61,6.19-13.8,13.8-13.8
		C332.94,281.05,339.13,287.24,339.13,294.85z M527.8,213.05c-7.61,0-13.8-6.19-13.8-13.8c0-7.61,6.19-13.8,13.8-13.8
		c7.61,0,13.8,6.19,13.8,13.8C541.6,206.86,535.41,213.05,527.8,213.05z"/>
	<path class="st2" d="M466.92,491.01v-23.42c0-3.17-2.57-5.74-5.74-5.74h-44.72v-19.78h87.95v10.87c3.85-0.03,7.66-0.11,11.47,0.03
		v-16.64c0-3.17-2.57-5.74-5.74-5.74h-40.94v-23.51h11c-0.15-0.36-0.29-0.74-0.39-1.12c-0.85-3.23,0.74-6.2,1.24-9.22
		c-0.02-0.37-0.01-0.74,0-1.12h-17.58c-3.17,0-5.74,2.57-5.74,5.74v29.25h-41.28v-29.25c0-3.17-2.57-5.74-5.74-5.74h-28.68v-25.43
		c0-3.17-2.57-5.74-5.74-5.74h-19.8c-2.61-11.18-12.63-19.53-24.59-19.53c-13.93,0-25.27,11.34-25.27,25.27s11.34,25.27,25.27,25.27
		c11.96,0,21.98-8.36,24.59-19.54h14.07v45.6h-35.31c-2.06,0-3.95,1.1-4.98,2.88c-1.02,1.78-1.01,3.98,0.03,5.75
		c4.28,7.3,8.7,14.48,13.27,21.55c0.22-0.03,0.46-0.05,0.7-0.05c4.03-0.08,7.94-0.78,11.71-2c-3.63-5.5-7.18-11.05-10.61-16.66
		h30.93c3.17,0,5.74-2.57,5.74-5.74v-20.17H405v60.5c0,3.17,2.57,5.74,5.74,5.74h44.72v17.68c-11.18,2.61-19.53,12.63-19.53,24.59
		c0,13.93,11.34,25.27,25.27,25.27c13.93,0,25.27-11.34,25.27-25.27C486.46,503.64,478.1,493.62,466.92,491.01z M331.92,383.99
		c-7.61,0-13.8-6.19-13.8-13.8c0-7.61,6.19-13.8,13.8-13.8c7.61,0,13.8,6.19,13.8,13.8C345.72,377.8,339.53,383.99,331.92,383.99z
		 M461.19,529.4c-7.61,0-13.8-6.19-13.8-13.8c0-7.61,6.19-13.8,13.8-13.8c7.61,0,13.8,6.19,13.8,13.8
		C474.99,523.21,468.79,529.4,461.19,529.4z"/>
	<path class="st2" d="M515.63,376.09c-11.96,0-21.98,8.36-24.59,19.53h-10.11c-0.35,4.26-1.45,8.36-3.57,11.47h13.68
		c2.61,11.18,12.63,19.54,24.59,19.54c13.93,0,25.27-11.34,25.27-25.27C540.9,387.42,529.56,376.09,515.63,376.09z M515.63,415.16
		c-7.61,0-13.8-6.19-13.8-13.8c0-7.61,6.19-13.8,13.8-13.8c7.61,0,13.8,6.19,13.8,13.8C529.43,408.97,523.24,415.16,515.63,415.16z"
		/>
	<path class="st2" d="M465.73,293.43c1.08-1.08,1.68-2.53,1.68-4.06v-10.99c0-3.17-2.57-5.74-5.74-5.74c-3.17,0-5.74,2.57-5.74,5.74
		V287l-25.57,25.57c-1.08,1.08-1.68,2.53-1.68,4.06v15.61c0,3.17,2.57,5.74,5.74,5.74c40.62-0.43,81.24-0.86,121.86-1.28
		c-1-1.47-2.1-3.35-3.06-5.65c-0.79-1.91-1.31-3.67-1.65-5.18c-37.14,0.22-74.28,0.43-111.42,0.65V319L465.73,293.43z"/>
	<circle class="st3" cx="570.9" cy="471.54" r="17.21"/>
	<circle class="st4" cx="356.34" cy="467.25" r="17.21"/>
	<circle class="st4" cx="570.9" cy="331.42" r="17.21"/>
	<g>
		<circle class="st2" cx="452.5" cy="367.52" r="11.95"/>
		<circle class="st2" cx="394.27" cy="524.03" r="11.95"/>
		<circle class="st2" cx="510.31" cy="463.73" r="13.68"/>
		<circle class="st2" cx="516.79" cy="271.42" r="14.74"/>
		<circle class="st2" cx="588.1" cy="232.33" r="11.95"/>
		<circle class="st1" cx="243.81" cy="284.11" r="10.61"/>
	</g>
</g>
<g>
	<rect x="80.27" y="559.35" class="st1" width="193.94" height="3.97"/>
	<g>
		<path class="st1" d="M105.35,500.85l23.25,49.85h-5.38l-7.84-16.4H93.9l-7.77,16.4h-5.56l23.55-49.85H105.35z M104.72,511.44
			l-8.54,18.05h17.04L104.72,511.44z"/>
		<path class="st1" d="M150.73,499.6v4.64c-1.74-0.75-3.23-1.12-4.47-1.12c-0.93,0-1.69,0.19-2.3,0.56
			c-0.61,0.37-0.99,0.8-1.15,1.29c-0.16,0.49-0.24,1.78-0.24,3.88l0,4.98h7.7v4.1h-7.7l-0.03,32.77h-4.74v-32.77h-4.85v-4.1h4.85
			v-5.76c0-2.64,0.24-4.53,0.73-5.66s1.31-2.04,2.47-2.73c1.16-0.69,2.57-1.03,4.22-1.03C146.74,498.65,148.58,498.96,150.73,499.6z
			"/>
		<path class="st1" d="M155.54,513.83h4.85v5.39c1.45-2.12,2.97-3.71,4.58-4.76c1.6-1.05,3.28-1.58,5.02-1.58
			c1.31,0,2.71,0.42,4.2,1.25l-2.47,4c-0.99-0.43-1.83-0.64-2.51-0.64c-1.58,0-3.11,0.65-4.58,1.95c-1.47,1.3-2.59,3.32-3.36,6.05
			c-0.59,2.1-0.88,6.35-0.88,12.74v12.47h-4.85V513.83z"/>
		<path class="st1" d="M179.86,498.65c1.08,0,2,0.38,2.77,1.15c0.76,0.77,1.15,1.7,1.15,2.78c0,1.06-0.38,1.98-1.15,2.75
			c-0.76,0.77-1.69,1.15-2.77,1.15c-1.06,0-1.97-0.38-2.73-1.15c-0.76-0.77-1.15-1.68-1.15-2.75c0-1.08,0.38-2.01,1.15-2.78
			C177.89,499.03,178.8,498.65,179.86,498.65z M177.5,513.83h4.75v36.87h-4.75V513.83z"/>
		<path class="st1" d="M227.9,521.49l-3.76,2.34c-3.25-4.32-7.68-6.47-13.3-6.47c-4.49,0-8.22,1.45-11.19,4.33
			c-2.97,2.89-4.45,6.4-4.45,10.53c0,2.69,0.68,5.21,2.05,7.58s3.24,4.21,5.62,5.52c2.38,1.31,5.05,1.96,8.01,1.96
			c5.42,0,9.84-2.16,13.27-6.47l3.76,2.47c-1.76,2.65-4.13,4.71-7.1,6.18c-2.97,1.46-6.35,2.2-10.15,2.2
			c-5.83,0-10.66-1.85-14.51-5.56c-3.84-3.71-5.76-8.21-5.76-13.52c0-3.57,0.9-6.89,2.69-9.95s4.26-5.45,7.41-7.17
			c3.14-1.72,6.65-2.58,10.54-2.58c2.44,0,4.8,0.37,7.07,1.12c2.27,0.75,4.2,1.72,5.78,2.91
			C225.45,518.11,226.79,519.64,227.9,521.49z"/>
		<path class="st1" d="M273.75,513.83v36.87h-4.68v-6.34c-1.99,2.42-4.22,4.24-6.69,5.46c-2.47,1.22-5.18,1.83-8.12,1.83
			c-5.22,0-9.68-1.89-13.37-5.68c-3.69-3.78-5.54-8.39-5.54-13.81c0-5.31,1.86-9.85,5.59-13.62c3.73-3.77,8.21-5.66,13.46-5.66
			c3.03,0,5.77,0.64,8.22,1.93c2.45,1.29,4.6,3.22,6.46,5.79v-6.78H273.75z M254.79,517.46c-2.64,0-5.08,0.65-7.31,1.95
			c-2.23,1.3-4.01,3.12-5.33,5.47s-1.98,4.83-1.98,7.45c0,2.6,0.67,5.08,2,7.45c1.33,2.37,3.12,4.21,5.37,5.54
			c2.25,1.32,4.65,1.98,7.23,1.98c2.6,0,5.06-0.65,7.38-1.96c2.32-1.31,4.11-3.08,5.37-5.31c1.25-2.23,1.88-4.75,1.88-7.55
			c0-4.26-1.4-7.83-4.21-10.7C262.36,518.89,258.9,517.46,254.79,517.46z"/>
	</g>
</g>
<g>
	<g>
		<path class="st5" d="M80.4,584.81c-0.49,0-0.87-0.38-0.87-0.87s0.38-0.87,0.87-0.87c0.46,0,0.84,0.38,0.84,0.87
			S80.86,584.81,80.4,584.81z"/>
		<path class="st5" d="M83.34,584.81c-0.49,0-0.87-0.38-0.87-0.87s0.38-0.87,0.87-0.87c0.46,0,0.84,0.38,0.84,0.87
			S83.8,584.81,83.34,584.81z"/>
		<path class="st5" d="M86.28,584.81c-0.49,0-0.87-0.38-0.87-0.87s0.38-0.87,0.87-0.87c0.46,0,0.84,0.38,0.84,0.87
			S86.74,584.81,86.28,584.81z"/>
		<path class="st5" d="M87.9,577.05h1.3l1.77,6.44l1.9-6.44h1.3l1.86,6.46l1.74-6.46h1.26l-2.4,7.68h-1.32l-1.85-6.09l-1.85,6.09
			h-1.32L87.9,577.05z"/>
		<path class="st5" d="M100.29,574.36h1.27v3.8c0.5-0.81,1.46-1.25,2.54-1.25c1.71,0,3.07,1.09,3.07,3.29v4.52h-1.26v-4.34
			c0-1.57-0.85-2.37-2.14-2.37c-1.3,0-2.2,0.81-2.2,2.47v4.24h-1.27V574.36z"/>
		<path class="st5" d="M112.57,584.85c-2.19,0-3.8-1.54-3.8-3.98c0-2.42,1.55-3.95,3.8-3.95c2.23,0,3.68,1.57,3.68,3.67
			c0,0.28-0.01,0.5-0.04,0.77h-6.14c0.1,1.55,1.19,2.41,2.49,2.41c1.15,0,1.88-0.59,2.16-1.42h1.37
			C115.71,583.76,114.47,584.85,112.57,584.85z M110.09,580.33h4.85c0.01-1.5-1.11-2.33-2.42-2.33
			C111.27,578,110.23,578.83,110.09,580.33z"/>
		<path class="st5" d="M119.2,584.73h-1.27v-7.68h1.27v1.25c0.43-0.85,1.26-1.39,2.48-1.39v1.32h-0.34c-1.22,0-2.14,0.55-2.14,2.33
			V584.73z"/>
		<path class="st5" d="M126.47,584.85c-2.19,0-3.8-1.54-3.8-3.98c0-2.42,1.55-3.95,3.8-3.95c2.23,0,3.68,1.57,3.68,3.67
			c0,0.28-0.01,0.5-0.04,0.77h-6.14c0.1,1.55,1.19,2.41,2.49,2.41c1.15,0,1.88-0.59,2.16-1.42H130
			C129.61,583.76,128.38,584.85,126.47,584.85z M123.99,580.33h4.85c0.01-1.5-1.11-2.33-2.42-2.33
			C125.17,578,124.13,578.83,123.99,580.33z"/>
		<path class="st5" d="M138.83,576.92c1.91,0,3.15,0.98,3.54,2.59H141c-0.27-0.92-1.04-1.51-2.17-1.51c-1.4,0-2.44,0.99-2.44,2.87
			c0,1.91,1.04,2.9,2.44,2.9c1.13,0,1.89-0.55,2.17-1.51h1.37c-0.39,1.53-1.64,2.59-3.54,2.59c-2.19,0-3.74-1.54-3.74-3.98
			C135.09,578.46,136.65,576.92,138.83,576.92z"/>
		<path class="st5" d="M145.34,584.73h-1.27v-7.68h1.27v1.25c0.43-0.85,1.26-1.39,2.48-1.39v1.32h-0.34c-1.22,0-2.14,0.55-2.14,2.33
			V584.73z"/>
		<path class="st5" d="M152.61,584.85c-2.19,0-3.8-1.54-3.8-3.98c0-2.42,1.55-3.95,3.8-3.95c2.23,0,3.68,1.57,3.68,3.67
			c0,0.28-0.01,0.5-0.04,0.77h-6.14c0.1,1.55,1.19,2.41,2.49,2.41c1.15,0,1.88-0.59,2.16-1.42h1.37
			C155.75,583.76,154.51,584.85,152.61,584.85z M150.13,580.33h4.85c0.01-1.5-1.11-2.33-2.42-2.33
			C151.31,578,150.27,578.83,150.13,580.33z"/>
		<path class="st5" d="M161.13,576.92c1.43,0,2.41,0.73,2.86,1.53v-1.4h1.29v7.68h-1.29v-1.43c-0.46,0.83-1.46,1.55-2.87,1.55
			c-2.05,0-3.63-1.61-3.63-3.99C157.49,578.46,159.07,576.92,161.13,576.92z M161.39,578.03c-1.4,0-2.59,1.02-2.59,2.83
			s1.19,2.87,2.59,2.87c1.4,0,2.61-1.05,2.61-2.86C163.99,579.09,162.79,578.03,161.39,578.03z"/>
		<path class="st5" d="M167.71,578.1h-0.99v-1.05h0.99v-1.93h1.27v1.93h2v1.05h-2v4.52c0,0.76,0.28,1.02,1.06,1.02h0.94v1.08h-1.15
			c-1.36,0-2.13-0.56-2.13-2.1V578.1z"/>
		<path class="st5" d="M172.32,574.93c0-0.49,0.38-0.87,0.87-0.87c0.46,0,0.84,0.38,0.84,0.87s-0.38,0.87-0.84,0.87
			C172.7,575.8,172.32,575.42,172.32,574.93z M172.53,577.05h1.27v7.68h-1.27V577.05z"/>
		<path class="st5" d="M176.43,577.05l2.4,6.5l2.38-6.5h1.36l-3.01,7.68h-1.48l-3.01-7.68H176.43z"/>
		<path class="st5" d="M183.62,574.93c0-0.49,0.38-0.87,0.87-0.87c0.46,0,0.84,0.38,0.84,0.87s-0.38,0.87-0.84,0.87
			C183.99,575.8,183.62,575.42,183.62,574.93z M183.83,577.05h1.27v7.68h-1.27V577.05z"/>
		<path class="st5" d="M187.55,578.1h-0.99v-1.05h0.99v-1.93h1.27v1.93h2v1.05h-2v4.52c0,0.76,0.28,1.02,1.06,1.02h0.94v1.08h-1.15
			c-1.36,0-2.13-0.56-2.13-2.1V578.1z"/>
		<path class="st5" d="M197.66,577.05h1.32l-4.62,11.29h-1.32l1.51-3.7l-3.1-7.59h1.42l2.41,6.22L197.66,577.05z"/>
		<path class="st5" d="M215.07,580.38c0-1.57-0.84-2.37-2.1-2.37c-1.29,0-2.17,0.83-2.17,2.48v4.23h-1.26v-4.34
			c0-1.57-0.84-2.37-2.1-2.37c-1.29,0-2.17,0.83-2.17,2.48v4.23h-1.27v-7.68h1.27v1.11c0.5-0.81,1.41-1.25,2.42-1.25
			c1.26,0,2.31,0.56,2.82,1.71c0.45-1.11,1.54-1.71,2.72-1.71c1.75,0,3.11,1.09,3.11,3.29v4.52h-1.26V580.38z"/>
		<path class="st5" d="M221.73,584.85c-2.19,0-3.8-1.54-3.8-3.98c0-2.42,1.55-3.95,3.8-3.95c2.23,0,3.68,1.57,3.68,3.67
			c0,0.28-0.01,0.5-0.04,0.77h-6.14c0.1,1.55,1.19,2.41,2.49,2.41c1.15,0,1.88-0.59,2.16-1.42h1.37
			C224.86,583.76,223.63,584.85,221.73,584.85z M219.25,580.33h4.85c0.01-1.5-1.11-2.33-2.42-2.33
			C220.42,578,219.39,578.83,219.25,580.33z"/>
		<path class="st5" d="M230.4,584.85c-2.19,0-3.8-1.54-3.8-3.98c0-2.42,1.55-3.95,3.8-3.95c2.23,0,3.68,1.57,3.68,3.67
			c0,0.28-0.01,0.5-0.04,0.77h-6.14c0.1,1.55,1.19,2.41,2.49,2.41c1.15,0,1.88-0.59,2.16-1.42h1.37
			C233.54,583.76,232.31,584.85,230.4,584.85z M227.93,580.33h4.85c0.01-1.5-1.11-2.33-2.42-2.33
			C229.1,578,228.07,578.83,227.93,580.33z"/>
		<path class="st5" d="M236.05,578.1h-0.99v-1.05h0.99v-1.93h1.27v1.93h2v1.05h-2v4.52c0,0.76,0.28,1.02,1.06,1.02h0.94v1.08h-1.15
			c-1.36,0-2.13-0.56-2.13-2.1V578.1z"/>
		<path class="st5" d="M243.58,584.85c-1.79,0-3.05-0.98-3.14-2.38h1.32c0.07,0.74,0.73,1.3,1.81,1.3c1.01,0,1.57-0.5,1.57-1.13
			c0-1.71-4.54-0.71-4.54-3.57c0-1.18,1.11-2.14,2.82-2.14c1.69,0,2.82,0.91,2.9,2.41h-1.27c-0.06-0.77-0.64-1.33-1.67-1.33
			c-0.94,0-1.5,0.45-1.5,1.06c0,1.82,4.45,0.83,4.51,3.57C246.38,583.9,245.27,584.85,243.58,584.85z"/>
		<path class="st5" d="M254.62,584.85c-1.79,0-3.05-0.98-3.14-2.38h1.32c0.07,0.74,0.73,1.3,1.81,1.3c1.01,0,1.57-0.5,1.57-1.13
			c0-1.71-4.54-0.71-4.54-3.57c0-1.18,1.11-2.14,2.82-2.14c1.69,0,2.82,0.91,2.9,2.41h-1.27c-0.06-0.77-0.64-1.33-1.67-1.33
			c-0.94,0-1.5,0.45-1.5,1.06c0,1.82,4.45,0.83,4.51,3.57C257.43,583.9,256.32,584.85,254.62,584.85z"/>
		<path class="st5" d="M259.5,578.1h-0.99v-1.05h0.99v-1.93h1.27v1.93h2v1.05h-2v4.52c0,0.76,0.28,1.02,1.06,1.02h0.94v1.08h-1.15
			c-1.36,0-2.13-0.56-2.13-2.1V578.1z"/>
		<path class="st5" d="M265.59,584.73h-1.27v-7.68h1.27v1.25c0.43-0.85,1.26-1.39,2.48-1.39v1.32h-0.34c-1.22,0-2.14,0.55-2.14,2.33
			V584.73z"/>
		<path class="st5" d="M272.7,576.92c1.43,0,2.41,0.73,2.86,1.53v-1.4h1.29v7.68h-1.29v-1.43c-0.46,0.83-1.46,1.55-2.87,1.55
			c-2.05,0-3.63-1.61-3.63-3.99C269.06,578.46,270.64,576.92,272.7,576.92z M272.95,578.03c-1.4,0-2.59,1.02-2.59,2.83
			s1.19,2.87,2.59,2.87c1.4,0,2.61-1.05,2.61-2.86C275.56,579.09,274.35,578.03,272.95,578.03z"/>
		<path class="st5" d="M279.28,578.1h-0.99v-1.05h0.99v-1.93h1.27v1.93h2v1.05h-2v4.52c0,0.76,0.28,1.02,1.06,1.02h0.94v1.08h-1.15
			c-1.36,0-2.13-0.56-2.13-2.1V578.1z"/>
		<path class="st5" d="M287.41,584.85c-2.19,0-3.8-1.54-3.8-3.98c0-2.42,1.55-3.95,3.8-3.95c2.23,0,3.68,1.57,3.68,3.67
			c0,0.28-0.01,0.5-0.04,0.77h-6.14c0.1,1.55,1.19,2.41,2.49,2.41c1.15,0,1.88-0.59,2.16-1.42h1.37
			C290.55,583.76,289.32,584.85,287.41,584.85z M284.93,580.33h4.85c0.01-1.5-1.11-2.33-2.42-2.33
			C286.11,578,285.07,578.83,284.93,580.33z"/>
		<path class="st5" d="M295.94,576.92c1.4,0,2.41,0.7,2.86,1.53v-1.4h1.29v7.84c0,2.12-1.42,3.61-3.67,3.61
			c-2.02,0-3.46-1.02-3.71-2.66h1.26c0.28,0.92,1.19,1.55,2.45,1.55c1.36,0,2.38-0.87,2.38-2.51v-1.61
			c-0.46,0.83-1.46,1.57-2.86,1.57c-2.06,0-3.64-1.61-3.64-3.99C292.3,578.46,293.88,576.92,295.94,576.92z M296.19,578.03
			c-1.4,0-2.59,1.02-2.59,2.83s1.19,2.87,2.59,2.87c1.4,0,2.61-1.05,2.61-2.86C298.8,579.09,297.59,578.03,296.19,578.03z"/>
		<path class="st5" d="M307.53,577.05h1.32l-4.62,11.29h-1.32l1.51-3.7l-3.1-7.59h1.42l2.41,6.22L307.53,577.05z"/>
	</g>
	<g>
		<path class="st2" d="M86,476.33c0.07,2.84,0.42,3.74,1.35,4.01c0.66,0.17,1.42,0.21,1.73,0.21c0.17,0,0.28,0.07,0.28,0.21
			c0,0.21-0.21,0.28-0.62,0.28c-1.97,0-3.36-0.1-3.67-0.1c-0.31,0-1.76,0.1-3.32,0.1c-0.35,0-0.55-0.03-0.55-0.28
			c0-0.14,0.1-0.21,0.28-0.21c0.28,0,0.9-0.03,1.42-0.21c0.86-0.24,1.04-1.25,1.04-4.39l0.03-19.82c0-1.35,0.1-1.73,0.38-1.73
			c0.28,0,0.87,0.76,1.21,1.11c0.52,0.59,5.67,6.16,11,11.87c3.42,3.67,7.2,7.89,8.3,9.03l-0.38-17.57
			c-0.03-2.25-0.28-3.01-1.35-3.29c-0.62-0.14-1.42-0.17-1.7-0.17c-0.24,0-0.28-0.1-0.28-0.24c0-0.21,0.28-0.24,0.69-0.24
			c1.56,0,3.22,0.1,3.6,0.1s1.52-0.1,2.94-0.1c0.38,0,0.62,0.04,0.62,0.24c0,0.14-0.14,0.24-0.38,0.24c-0.17,0-0.42,0-0.83,0.1
			c-1.14,0.24-1.28,1-1.28,3.08l-0.07,20.27c0,2.28-0.07,2.46-0.31,2.46c-0.28,0-0.69-0.38-2.53-2.21
			c-0.38-0.35-5.36-5.43-9.03-9.37c-4.01-4.32-7.92-8.68-9.03-9.93L86,476.33z"/>
		<path class="st2" d="M117.03,467.3c0-4.57,0-5.4-0.07-6.33c-0.07-1-0.24-1.49-1.25-1.63c-0.24-0.04-0.76-0.07-1.04-0.07
			c-0.1,0-0.24-0.14-0.24-0.24c0-0.17,0.14-0.24,0.48-0.24c1.38,0,3.36,0.07,3.53,0.07c0.21,0,6.57,0.03,7.26,0
			c0.59-0.04,1.14-0.14,1.38-0.17c0.14-0.04,0.28-0.14,0.42-0.14c0.1,0,0.14,0.14,0.14,0.28c0,0.21-0.17,0.55-0.24,1.38
			c-0.03,0.28-0.1,1.59-0.17,1.94c-0.03,0.14-0.14,0.31-0.28,0.31c-0.17,0-0.24-0.14-0.24-0.38c0-0.21-0.03-0.69-0.17-1.04
			c-0.21-0.48-0.52-0.69-2.18-0.9c-0.52-0.07-4.05-0.1-4.39-0.1c-0.14,0-0.17,0.1-0.17,0.31v7.99c0,0.21,0,0.31,0.17,0.31
			c0.38,0,4.39,0,5.09-0.07c0.73-0.07,1.18-0.1,1.49-0.42c0.21-0.21,0.35-0.38,0.45-0.38c0.1,0,0.17,0.07,0.17,0.24
			s-0.17,0.66-0.24,1.62c-0.07,0.59-0.14,1.7-0.14,1.9c0,0.24-0.07,0.55-0.28,0.55c-0.14,0-0.21-0.1-0.21-0.28
			c0-0.28,0-0.59-0.14-0.97c-0.1-0.42-0.38-0.76-1.56-0.9c-0.83-0.1-4.08-0.14-4.6-0.14c-0.17,0-0.21,0.1-0.21,0.21v2.46
			c0,1-0.03,4.43,0,5.02c0.07,1.97,0.62,2.35,3.63,2.35c0.8,0,2.25,0,3.04-0.31c0.8-0.35,1.21-0.86,1.38-2.04
			c0.07-0.35,0.14-0.45,0.31-0.45c0.17,0,0.21,0.24,0.21,0.45c0,0.21-0.24,2.21-0.42,2.84c-0.21,0.76-0.52,0.76-1.69,0.76
			c-2.28,0-4.05-0.07-5.29-0.1c-1.28-0.07-2.08-0.07-2.53-0.07c-0.07,0-0.66,0-1.31,0.03c-0.59,0.04-1.28,0.07-1.76,0.07
			c-0.31,0-0.48-0.07-0.48-0.24c0-0.1,0.07-0.24,0.24-0.24c0.28,0,0.66-0.1,0.93-0.14c0.59-0.1,0.66-0.69,0.8-1.56
			c0.17-1.21,0.17-3.53,0.17-6.37V467.3z"/>
		<path class="st2" d="M142.73,472.49c0,2.84,0,5.15,0.14,6.37c0.1,0.86,0.24,1.42,1.18,1.56c0.42,0.07,1.11,0.14,1.38,0.14
			c0.21,0,0.24,0.14,0.24,0.24c0,0.14-0.14,0.24-0.48,0.24c-1.66,0-3.6-0.1-3.77-0.1c-0.14,0-2.25,0.1-3.15,0.1
			c-0.35,0-0.48-0.07-0.48-0.24c0-0.1,0.07-0.21,0.24-0.21c0.28,0,0.62-0.07,0.9-0.14c0.62-0.14,0.8-0.73,0.9-1.59
			c0.14-1.21,0.14-3.53,0.14-6.37v-12.35l-4.39,0.07c-1.9,0.04-2.63,0.24-3.08,0.93c-0.35,0.52-0.38,0.73-0.48,0.93
			c-0.07,0.24-0.17,0.28-0.31,0.28c-0.07,0-0.21-0.07-0.21-0.24c0-0.31,0.62-2.94,0.66-3.18c0.07-0.17,0.21-0.55,0.31-0.55
			c0.21,0,0.52,0.24,1.35,0.35c0.86,0.1,2.04,0.14,2.39,0.14h11.48c1,0,1.7-0.07,2.18-0.14c0.45-0.07,0.73-0.14,0.86-0.14
			c0.14,0,0.14,0.17,0.14,0.35c0,0.9-0.1,3.01-0.1,3.36c0,0.24-0.14,0.38-0.28,0.38c-0.14,0-0.21-0.1-0.24-0.52l-0.03-0.31
			c-0.1-0.9-0.76-1.56-3.67-1.63l-3.81-0.07V472.49z"/>
		<path class="st2" d="M176.27,476.68h0.14c0.76-2.42,3.49-10.93,4.57-14.7c0.31-1.11,0.35-1.45,0.35-1.83
			c0-0.52-0.24-0.86-1.63-0.86c-0.17,0-0.28-0.17-0.28-0.28c0-0.14,0.14-0.21,0.52-0.21c1.56,0,2.84,0.07,3.11,0.07
			c0.21,0,1.52-0.07,2.46-0.07c0.28,0,0.42,0.07,0.42,0.17c0,0.14-0.07,0.31-0.28,0.31c-0.1,0-0.69,0.03-1.04,0.14
			c-0.9,0.31-1.38,1.49-1.97,3.11c-1.35,3.74-4.36,13.08-5.57,16.36c-0.8,2.18-0.97,2.53-1.31,2.53c-0.31,0-0.59-0.38-1-1.52
			l-5.95-16.08c-1.04,2.56-5.15,13.32-6.26,16.05c-0.52,1.25-0.73,1.56-1.07,1.56c-0.31,0-0.55-0.31-1.18-2.32l-5.4-17.43
			c-0.48-1.56-0.8-1.94-1.59-2.21c-0.42-0.14-1.18-0.17-1.38-0.17c-0.14,0-0.28-0.1-0.28-0.28c0-0.14,0.21-0.21,0.48-0.21
			c1.59,0,3.29,0.07,3.6,0.07c0.28,0,1.66-0.07,3.18-0.07c0.42,0,0.55,0.07,0.55,0.21c0,0.17-0.17,0.28-0.31,0.28
			c-0.24,0-0.73,0-1.07,0.17c-0.21,0.07-0.42,0.24-0.42,0.62c0,0.38,0.24,1.42,0.59,2.73c0.48,1.87,3.6,12.66,3.98,13.87h0.07
			l6.37-16.43c0.45-1.18,0.66-1.35,0.83-1.35c0.21,0,0.45,0.38,0.83,1.38L176.27,476.68z"/>
		<path class="st2" d="M199.45,458.38c6.85,0,12.04,4.19,12.04,11.04c0,6.57-4.88,12-12.21,12c-8.34,0-11.9-6.26-11.9-11.55
			C187.37,465.12,191.04,458.38,199.45,458.38z M200.14,480.21c2.73,0,8.23-1.45,8.23-9.96c0-7.06-4.29-10.76-9.1-10.76
			c-5.08,0-8.75,3.18-8.75,9.58C190.52,475.92,194.64,480.21,200.14,480.21z"/>
		<path class="st2" d="M217.85,467.3c0-4.57,0-5.4-0.07-6.33c-0.07-1-0.24-1.49-1.25-1.63c-0.24-0.04-0.76-0.07-1.04-0.07
			c-0.1,0-0.24-0.14-0.24-0.24c0-0.17,0.14-0.24,0.48-0.24c1.38,0,3.42,0.07,3.6,0.07c0.31,0,2.87-0.07,3.81-0.07
			c1.94,0,4.08,0.17,5.67,1.28c0.76,0.55,2.11,1.97,2.11,4.01c0,2.18-0.9,4.29-3.74,6.71c2.49,3.11,4.6,5.78,6.36,7.61
			c1.63,1.66,2.63,1.94,3.39,2.04c0.59,0.1,0.9,0.1,1.07,0.1c0.17,0,0.28,0.14,0.28,0.24c0,0.17-0.17,0.24-0.73,0.24h-1.9
			c-1.73,0-2.49-0.17-3.25-0.59c-1.31-0.69-2.42-2.11-4.15-4.32c-1.28-1.59-2.63-3.49-3.29-4.29c-0.14-0.14-0.21-0.17-0.42-0.17
			l-3.87-0.07c-0.14,0-0.21,0.07-0.21,0.24v0.69c0,2.84,0,5.12,0.14,6.33c0.1,0.86,0.28,1.42,1.21,1.56
			c0.42,0.07,1.07,0.14,1.35,0.14c0.21,0,0.24,0.14,0.24,0.24c0,0.14-0.14,0.24-0.48,0.24c-1.66,0-3.6-0.1-3.74-0.1
			c-0.03,0-2.08,0.1-3.01,0.1c-0.31,0-0.48-0.07-0.48-0.24c0-0.1,0.07-0.24,0.24-0.24c0.28,0,0.66-0.07,0.93-0.14
			c0.59-0.14,0.66-0.69,0.8-1.56c0.17-1.21,0.17-3.53,0.17-6.37V467.3z M220.47,469.79c0,0.17,0.07,0.28,0.21,0.38
			c0.45,0.24,2.01,0.45,3.36,0.45c0.73,0,1.56-0.03,2.28-0.52c1.04-0.69,1.83-2.25,1.83-4.5c0-3.67-2.01-5.78-5.26-5.78
			c-0.9,0-1.87,0.1-2.18,0.17c-0.14,0.07-0.24,0.17-0.24,0.35V469.79z"/>
		<path class="st2" d="M241.09,467.3c0-4.57,0-5.4-0.07-6.33c-0.07-1-0.24-1.49-1.25-1.63c-0.24-0.04-0.76-0.07-1.04-0.07
			c-0.1,0-0.24-0.14-0.24-0.24c0-0.17,0.14-0.24,0.48-0.24c1.38,0,3.25,0.07,3.42,0.07c0.28,0,2.11-0.07,3.01-0.07
			c0.35,0,0.48,0.07,0.48,0.24c0,0.1-0.1,0.24-0.24,0.24c-0.21,0-0.38,0-0.76,0.07c-0.8,0.17-1,0.59-1.07,1.63
			c-0.07,0.93-0.07,1.76-0.07,6.33v1.76h0.14c0.48-0.55,5.92-5.92,7.06-7.09c0.86-0.87,1.66-1.63,1.66-2.11
			c0-0.38-0.14-0.55-0.38-0.59c-0.17-0.04-0.28-0.17-0.28-0.28c0-0.14,0.14-0.21,0.35-0.21c0.62,0,1.56,0.07,2.28,0.07
			c0.17,0,2.18-0.07,2.94-0.07c0.31,0,0.45,0.07,0.45,0.21c0,0.14-0.07,0.24-0.31,0.24c-0.45,0-1.11,0.17-1.69,0.42
			c-1.25,0.55-1.83,1.21-3.18,2.49c-0.76,0.69-5.95,5.67-6.61,6.4c0.8,0.87,7.13,7.2,8.37,8.34c2.56,2.28,2.91,2.66,4.36,3.25
			c0.8,0.31,1.66,0.42,1.87,0.42s0.38,0.1,0.38,0.24c0,0.14-0.14,0.24-0.66,0.24h-1.56c-0.86,0-1.42,0-2.11-0.07
			c-1.59-0.14-2.39-0.79-3.7-1.8c-1.38-1.07-7.78-7.82-9.24-9.55h-0.14v2.87c0,2.84,0,5.15,0.14,6.37c0.1,0.86,0.24,1.42,1.18,1.56
			c0.42,0.07,0.9,0.14,1.18,0.14c0.17,0,0.24,0.14,0.24,0.24c0,0.14-0.14,0.24-0.48,0.24c-1.49,0-3.32-0.1-3.56-0.1
			s-2.08,0.1-3.01,0.1c-0.31,0-0.48-0.07-0.48-0.24c0-0.1,0.07-0.24,0.24-0.24c0.28,0,0.66-0.07,0.93-0.14
			c0.59-0.14,0.66-0.69,0.8-1.56c0.17-1.21,0.17-3.53,0.17-6.37V467.3z"/>
	</g>
	<g>
		<path class="st2" d="M115.35,402.69c0,8.61,0,15.65,0.42,19.32c0.31,2.62,0.73,4.31,3.57,4.73c1.26,0.21,3.36,0.42,4.2,0.42
			c0.63,0,0.73,0.42,0.73,0.74c0,0.42-0.42,0.74-1.47,0.74c-5.04,0-10.92-0.32-11.45-0.32c-0.42,0-6.83,0.32-9.56,0.32
			c-1.05,0-1.47-0.21-1.47-0.74c0-0.32,0.21-0.63,0.73-0.63c0.84,0,1.89-0.21,2.73-0.42c1.89-0.42,2.42-2.21,2.73-4.83
			c0.42-3.67,0.42-10.71,0.42-19.32v-37.49l-13.34,0.21c-5.78,0.1-7.98,0.74-9.35,2.83c-1.05,1.58-1.15,2.21-1.47,2.83
			c-0.21,0.74-0.52,0.84-0.94,0.84c-0.21,0-0.63-0.21-0.63-0.74c0-0.95,1.89-8.93,2-9.66c0.21-0.53,0.63-1.68,0.94-1.68
			c0.63,0,1.58,0.73,4.1,1.05c2.62,0.32,6.2,0.42,7.25,0.42h34.86c3.04,0,5.15-0.21,6.62-0.42c1.36-0.21,2.21-0.42,2.62-0.42
			s0.42,0.52,0.42,1.05c0,2.73-0.31,9.14-0.31,10.19c0,0.73-0.42,1.16-0.84,1.16c-0.42,0-0.63-0.32-0.74-1.58l-0.1-0.95
			c-0.31-2.73-2.31-4.73-11.13-4.94l-11.55-0.21V402.69z"/>
		<path class="st2" d="M169.01,362.9c1.16-2.94,1.58-3.46,2.21-3.46c0.95,0,1.26,1.26,2.21,3.25c1.68,3.78,16.49,40.64,22.16,54.19
			c3.36,7.98,5.88,9.14,7.88,9.77c1.36,0.42,2.73,0.52,3.68,0.52c0.52,0,1.15,0.21,1.15,0.74s-1.05,0.74-2.1,0.74
			c-1.37,0-8.19,0-14.6-0.21c-1.79-0.11-3.25-0.11-3.25-0.63c0-0.42,0.21-0.42,0.63-0.63c0.52-0.21,1.47-0.95,0.84-2.42l-8.3-20.48
			c-0.21-0.42-0.31-0.52-0.84-0.52h-21.32c-0.42,0-0.73,0.21-0.94,0.73l-5.25,14.28c-0.84,2.21-1.37,4.41-1.37,5.99
			c0,1.79,1.58,2.42,3.15,2.42h0.84c0.74,0,0.95,0.32,0.95,0.74c0,0.53-0.53,0.74-1.37,0.74c-2.21,0-7.25-0.32-8.3-0.32
			c-0.95,0-5.57,0.32-9.35,0.32c-1.15,0-1.79-0.21-1.79-0.74c0-0.42,0.42-0.74,0.84-0.74c0.63,0,2-0.1,2.73-0.21
			c4.2-0.53,5.99-3.68,7.77-8.19L169.01,362.9z M179.3,400.07c0.42,0,0.42-0.21,0.31-0.63l-9.14-24.47c-0.52-1.37-1.05-1.37-1.58,0
			l-8.61,24.47c-0.1,0.42,0,0.63,0.31,0.63H179.3z"/>
		<path class="st2" d="M228.86,408.37c0,14.49-0.32,20.06-3.05,26.36c-2,4.52-6.09,8.72-13.55,13.65c-1.26,0.84-2.84,1.79-3.78,2.31
			c-0.11,0-0.32,0.11-0.63,0.11c-0.21,0-0.63-0.11-0.63-0.53c0-0.53,0.31-0.95,1.15-1.47c1.16-0.63,2.42-1.68,3.26-2.42
			c5.99-5.99,8.82-10.61,8.82-33.6v-25.83c0-13.86,0-16.38-0.21-19.22c-0.21-3.04-0.74-4.51-3.78-4.94
			c-0.73-0.1-2.31-0.21-3.15-0.21c-0.31,0-0.73-0.42-0.73-0.73c0-0.53,0.42-0.74,1.47-0.74c4.2,0,10.19,0.21,10.71,0.21
			c0.42,0,6.2-0.21,9.03-0.21c1.05,0,1.47,0.21,1.47,0.74c0,0.31-0.42,0.73-0.73,0.73c-0.63,0-1.26,0-2.31,0.21
			c-2.52,0.53-3.05,1.79-3.26,4.94c-0.1,2.84-0.1,5.36-0.1,19.22V408.37z"/>
	</g>
</g>
</svg>
